<?xml version="1.0" encoding="UTF-8"?>
<svg xmlns="http://www.w3.org/2000/svg" width="260" height="260" viewBox="0 0 260 260" fill="none"
  version="1.2" baseProfile="tiny-ps">
  <title>Foundation Formation Kit</title>
  <desc>The Foundation Formation Kit offers resources to turn your project into a tax-exempt
    non-profit foundation.</desc>
  <rect width="260" height="260" fill="#FFFFFF"></rect>
  <path
    d="M132.61 32.8545V174.004L137.511 174.062L176.906 174.535V180.419H82.7534L82.6919 174.534L121.871 174.062L126.768 174.004L126.771 169.105L126.847 32.8545H132.61Z"
    fill="#1E1E1E" stroke="#1E1E1E" stroke-width="9.92034"></path>
  <path fill-rule="evenodd"
    d="M55.7642 99.7037L100.06 139.307V132.99L62.8301 99.7042L100.06 66.4186V60.1007L55.7642 99.7037Z"
    fill="#1E1E1E"></path>
  <path
    d="M100.06 139.307L97.215 142.488L104.327 148.847V139.307H100.06ZM55.7642 99.7037L52.9196 96.522L49.3609 99.7037L52.9196 102.885L55.7642 99.7037ZM100.06 132.99H104.327V131.081L102.904 129.808L100.06 132.99ZM62.8301 99.7042L59.9855 96.5225L56.4269 99.7042L59.9855 102.886L62.8301 99.7042ZM100.06 66.4186L102.904 69.6002L104.327 68.3277V66.4186H100.06ZM100.06 60.1007H104.327V50.56L97.215 56.919L100.06 60.1007ZM100.06 139.307L102.904 136.125L58.6088 96.522L55.7642 99.7037L52.9196 102.885L97.215 142.488L100.06 139.307ZM100.06 132.99H95.7917V139.307H100.06H104.327V132.99H100.06ZM100.06 132.99L102.904 129.808L65.6747 96.5225L62.8301 99.7042L59.9855 102.886L97.215 136.171L100.06 132.99ZM62.8301 99.7042L65.6747 102.886L102.904 69.6002L100.06 66.4186L97.215 63.2369L59.9855 96.5225L62.8301 99.7042ZM100.06 60.1007H95.7917V66.4186H100.06H104.327V60.1007H100.06ZM55.7642 99.7037L58.6088 102.885L102.904 63.2823L100.06 60.1007L97.215 56.919L52.9196 96.522L55.7642 99.7037Z"
    fill="#1E1E1E"></path>
  <path fill-rule="evenodd"
    d="M203.416 99.7036L159.12 60.1006V66.4183L196.349 99.7029L159.12 132.988V139.307L203.416 99.7036Z"
    fill="#1E1E1E"></path>
  <path
    d="M159.12 60.1006L161.965 56.9189L154.852 50.5599V60.1006H159.12ZM203.416 99.7036L206.26 102.885L209.819 99.7036L206.26 96.5219L203.416 99.7036ZM159.12 66.4183H154.852V68.3275L156.276 69.5999L159.12 66.4183ZM196.349 99.7029L199.193 102.885L202.752 99.7029L199.193 96.5213L196.349 99.7029ZM159.12 132.988L156.276 129.806L154.852 131.078V132.988H159.12ZM159.12 139.307H154.852V148.847L161.965 142.488L159.12 139.307ZM159.12 60.1006L156.276 63.2822L200.571 102.885L203.416 99.7036L206.26 96.5219L161.965 56.9189L159.12 60.1006ZM159.12 66.4183H163.388V60.1006H159.12H154.852V66.4183H159.12ZM159.12 66.4183L156.276 69.5999L193.504 102.885L196.349 99.7029L199.193 96.5213L161.965 63.2366L159.12 66.4183ZM196.349 99.7029L193.504 96.5213L156.276 129.806L159.12 132.988L161.965 136.169L199.193 102.885L196.349 99.7029ZM159.12 139.307H163.388V132.988H159.12H154.852V139.307H159.12ZM203.416 99.7036L200.571 96.5219L156.276 136.125L159.12 139.307L161.965 142.488L206.26 102.885L203.416 99.7036Z"
    fill="#1E1E1E"></path>
  <path
    d="M81.7155 237V203.273H111.093V208.918H88.9327V218.633H108.734V224H88.9327V237H81.7155ZM115.714 237V203.273H145.092V208.918H122.931V218.633H142.732V224H122.931V237H115.714ZM149.713 237V203.273H156.93V221.502L174.695 203.273H183.763L168.959 217.847L184.365 237H175.436L164.008 222.658L156.93 229.32V237H149.713Z"
    fill="black"></path>
</svg>
