<?xml version="1.0" encoding="UTF-8"?>
<svg xmlns="http://www.w3.org/2000/svg" width="200" height="200" viewBox="0 0 200 200" fill="none"
  version="1.2" baseProfile="tiny-ps">
  <title>Foundation Formation Kit</title>
  <desc>
    The Foundation Formation Kit offers resources to turn your project into a tax-exempt non-profit
    foundation.
  </desc>
  <rect width="200" height="200" fill="#FFFFFF"></rect>
  <path
    d="M101.506 20.6006V136.076L106.407 136.135L137.956 136.512V139.531H62.2275L62.1953 136.511L93.5576 136.135L98.4551 136.076L98.458 131.178L98.5205 20.6006H101.506Z"
    fill="#1E1E1E" stroke="#1E1E1E" stroke-width="9.92034"></path>
  <path fill-rule="evenodd"
    d="M25.7642 71.7037L70.0596 111.307V104.99L32.8301 71.7042L70.0596 38.4186V32.1007L25.7642 71.7037Z"
    fill="#1E1E1E"></path>
  <path
    d="M70.0596 111.307L67.215 114.488L74.3274 120.847V111.307H70.0596ZM25.7642 71.7037L22.9196 68.522L19.3609 71.7037L22.9196 74.8853L25.7642 71.7037ZM70.0596 104.99H74.3274V103.081L72.9042 101.808L70.0596 104.99ZM32.8301 71.7042L29.9855 68.5225L26.4269 71.7042L29.9855 74.8858L32.8301 71.7042ZM70.0596 38.4186L72.9042 41.6002L74.3274 40.3277V38.4186H70.0596ZM70.0596 32.1007H74.3274V22.56L67.215 28.919L70.0596 32.1007ZM70.0596 111.307L72.9042 108.125L28.6088 68.522L25.7642 71.7037L22.9196 74.8853L67.215 114.488L70.0596 111.307ZM70.0596 104.99H65.7917V111.307H70.0596H74.3274V104.99H70.0596ZM70.0596 104.99L72.9042 101.808L35.6747 68.5225L32.8301 71.7042L29.9855 74.8858L67.215 108.171L70.0596 104.99ZM32.8301 71.7042L35.6747 74.8858L72.9042 41.6002L70.0596 38.4186L67.215 35.2369L29.9855 68.5225L32.8301 71.7042ZM70.0596 32.1007H65.7917V38.4186H70.0596H74.3274V32.1007H70.0596ZM25.7642 71.7037L28.6088 74.8853L72.9042 35.2823L70.0596 32.1007L67.215 28.919L22.9196 68.522L25.7642 71.7037Z"
    fill="#1E1E1E"></path>
  <path fill-rule="evenodd"
    d="M173.416 71.7036L129.12 32.1006V38.4183L166.349 71.7029L129.12 104.988V111.307L173.416 71.7036Z"
    fill="#1E1E1E"></path>
  <path
    d="M129.12 32.1006L131.965 28.9189L124.852 22.5599V32.1006H129.12ZM173.416 71.7036L176.26 74.8852L179.819 71.7036L176.26 68.5219L173.416 71.7036ZM129.12 38.4183H124.852V40.3275L126.276 41.5999L129.12 38.4183ZM166.349 71.7029L169.193 74.8846L172.752 71.7029L169.193 68.5213L166.349 71.7029ZM129.12 104.988L126.276 101.806L124.852 103.078V104.988H129.12ZM129.12 111.307H124.852V120.847L131.965 114.488L129.12 111.307ZM129.12 32.1006L126.276 35.2822L170.571 74.8852L173.416 71.7036L176.26 68.5219L131.965 28.9189L129.12 32.1006ZM129.12 38.4183H133.388V32.1006H129.12H124.852V38.4183H129.12ZM129.12 38.4183L126.276 41.5999L163.504 74.8846L166.349 71.7029L169.193 68.5213L131.965 35.2366L129.12 38.4183ZM166.349 71.7029L163.504 68.5213L126.276 101.806L129.12 104.988L131.965 108.169L169.193 74.8846L166.349 71.7029ZM129.12 111.307H133.388V104.988H129.12H124.852V111.307H129.12ZM173.416 71.7036L170.571 68.5219L126.276 108.125L129.12 111.307L131.965 114.488L176.26 74.8852L173.416 71.7036Z"
    fill="#1E1E1E"></path>
  <path
    d="M41.781 195.577V161.851H71.1587V167.495H48.9982V177.21H68.7992V182.577H48.9982V195.577H41.781ZM75.7797 195.577V161.851H105.157V167.495H82.9969V177.21H102.798V182.577H82.9969V195.577H75.7797ZM109.778 195.577V161.851H116.996V180.079L134.761 161.851H143.829L129.024 176.424L144.43 195.577H135.501L124.074 181.235L116.996 187.897V195.577H109.778Z"
    fill="black"></path>
</svg>
