<svg width="96" height="96" viewBox="0 0 96 96" fill="none" xmlns="http://www.w3.org/2000/svg">
<g clip-path="url(#clip0_743_1583)">
<path d="M35.8124 33.0374C35.6061 33.2624 35.4374 33.5436 35.4374 33.6374C35.4374 33.7499 35.6624 35.1749 35.9436 36.7874C36.2061 38.4186 36.3936 39.7874 36.3374 39.8624C36.2811 39.9186 35.0061 39.7499 33.5249 39.4874C32.0249 39.2249 30.5811 38.9999 30.3186 38.9999C29.3624 38.9999 28.7624 40.1624 29.2499 41.0624C29.4936 41.5124 29.9811 41.6436 33.8249 42.2999C36.5999 42.7686 36.9561 42.8624 37.0311 43.2186C37.0874 43.4249 37.4249 45.3186 37.7811 47.4374C38.3249 50.6249 38.5124 51.3374 38.8311 51.5999C39.3936 52.0874 40.1624 52.0124 40.6874 51.4686L41.1374 50.9811L40.5374 47.3811C40.1999 45.3936 39.9374 43.6874 39.9374 43.5749C39.9374 43.4249 41.1374 43.5749 43.5561 43.9874C45.5249 44.3436 47.3061 44.5686 47.4749 44.5124C48.0561 44.3436 48.3749 43.8749 48.3749 43.2374C48.3749 42.1686 48.0186 42.0186 43.5749 41.2311C41.3436 40.8374 39.4686 40.4624 39.4124 40.4061C39.3561 40.3499 39.0374 38.7374 38.6999 36.8249C38.2874 34.4436 37.9874 33.2249 37.7624 32.9811C37.3124 32.4936 36.2999 32.5124 35.8124 33.0374Z" fill="white"/>
<path d="M21.9 47.3432C21.3188 47.662 21 48.1682 21 48.7495C21 49.2182 27.0188 62.6995 27.45 63.2057C27.825 63.6557 28.9125 63.6745 29.2875 63.2245C29.8313 62.587 29.8313 62.2307 29.175 60.7495L28.5375 59.287L30.8625 56.9807L33.1688 54.6745L34.4625 55.2745C35.175 55.612 35.9438 55.8745 36.1688 55.8745C36.6375 55.8745 37.5 55.1057 37.5 54.6745C37.5 54.112 37.0688 53.4745 36.5063 53.212C33.6938 51.8807 23.25 47.2495 22.875 47.1745C22.6125 47.1182 22.1813 47.1932 21.9 47.3432ZM27.9375 52.312C29.1188 52.837 30.15 53.3432 30.225 53.4182C30.3 53.4932 29.7 54.2057 28.875 55.0307C28.05 55.837 27.3563 56.4745 27.3 56.4182C27.1688 56.287 24.9375 51.3182 24.9375 51.1495C24.9375 50.9807 25.2188 51.0932 27.9375 52.312Z" fill="white"/>
<path d="M12.2435 56.4937C8.96226 59.7937 8.81226 60.0375 9.58101 61.0125C10.2185 61.8187 10.9123 61.6875 12.1498 60.4875L13.2185 59.4562L17.831 64.05C21.7873 67.9875 22.5185 68.625 23.006 68.625C23.6998 68.625 24.3748 67.95 24.3748 67.2188C24.3748 66.75 23.6623 65.9625 19.781 62.0625L15.1873 57.45L16.2185 56.4375C17.0998 55.5562 17.2498 55.3125 17.2498 54.7125C17.2498 53.9062 16.7435 53.4375 15.8435 53.4375C15.3748 53.4375 14.831 53.8875 12.2435 56.4937Z" fill="white"/>
<path d="M87.9373 0.168747C86.1936 0.7125 84.5998 2.1 83.8498 3.75C83.4373 4.65 83.3623 5.11875 83.2873 7.25625L83.2123 9.73125L77.7373 9.7875L72.2811 9.84375L71.1936 10.35C69.5623 11.1187 68.5311 11.925 67.7248 13.1062C66.3561 15.0938 66.3561 15.0938 66.3748 21.7125C66.3936 28.3687 66.3748 28.3125 67.7061 28.3125C68.9623 28.3125 68.9998 28.1812 68.9998 22.4625C68.9998 16.725 69.1311 16.0312 70.5561 14.475C72.0561 12.8625 72.1311 12.8438 78.0561 12.7875L83.2498 12.7312V19.1812V25.6312L82.6686 26.775C82.0498 28.0312 81.0373 28.9312 79.8373 29.2875L79.1248 29.4937V31.0687V32.625L79.6498 32.5125C82.6498 31.875 85.0311 29.7937 85.8748 27.0562C86.2123 25.9312 86.2498 25.3125 86.2498 19.3125V12.7875L88.7436 12.7125C91.1061 12.6562 91.2936 12.6187 92.4748 12.0375C95.4748 10.5562 96.7873 7.2 95.6061 3.99375C95.0623 2.53125 93.4873 0.956249 91.9873 0.393749C90.8998 -0.0187531 88.9123 -0.112503 87.9373 0.168747ZM91.6498 3.69375C92.6623 4.5 93.0373 5.30625 92.9436 6.6C92.9061 7.40625 92.7561 7.81875 92.3623 8.34375C91.5186 9.43125 90.6373 9.75 88.2748 9.75H86.2498V7.89375C86.2498 5.2125 86.7186 4.125 88.1623 3.39375C89.3061 2.8125 90.6936 2.925 91.6498 3.69375Z" fill="#406BEC"/>
<path d="M73.1628 33.3194C73.2003 46.7069 73.1628 49.8757 72.9565 50.2507C72.8253 50.5132 63.169 60.2632 51.5065 71.9444L30.3003 93.1694L31.4628 94.3882C32.1003 95.0444 32.6253 95.5694 32.6253 95.5319C32.6253 95.4944 33.019 95.5882 33.4878 95.7382C34.0503 95.9069 34.6503 95.9444 35.1378 95.8694C35.5503 95.7944 35.9628 95.7569 36.019 95.7569C36.0753 95.7757 45.694 86.1944 57.4128 74.4757C77.044 54.8257 78.7503 53.0819 78.9378 52.3132C79.2003 51.3194 79.219 20.9819 78.9565 19.8382C78.5065 17.8507 77.0628 16.8757 74.569 16.8757H73.1065L73.1628 33.3194Z" fill="#5247E6"/>
<path d="M12.0941 56.4375C10.5566 57.975 9.33785 59.25 9.37535 59.25C9.4316 59.25 10.7441 57.975 12.2816 56.4375C13.8191 54.8812 15.0379 53.625 15.0004 53.625C14.9441 53.625 13.6316 54.8812 12.0941 56.4375Z" fill="#96C196"/>
<path d="M30.8438 57C29.6063 58.2375 28.6501 59.25 28.6876 59.25C28.7438 59.25 29.7938 58.2375 31.0313 57C32.2688 55.7625 33.2251 54.75 33.1876 54.75C33.1313 54.75 32.0813 55.7625 30.8438 57Z" fill="#96C196"/>
<path d="M17.6247 64.0312C20.0435 66.45 22.0685 68.4375 22.1247 68.4375C22.181 68.4375 20.231 66.45 17.8122 64.0312C15.3935 61.6125 13.3685 59.625 13.3122 59.625C13.256 59.625 15.206 61.6125 17.6247 64.0312Z" fill="#96C196"/>
<path d="M73.1812 34.5C73.1812 34.9688 73.2187 35.1563 73.2562 34.9125C73.2937 34.6875 73.2937 34.3125 73.2562 34.0688C73.2187 33.8438 73.1812 34.0313 73.1812 34.5Z" fill="#6BEC96"/>
<path d="M73.2002 45.281C73.2002 46.6123 73.2189 47.1373 73.2564 46.4435C73.2939 45.7498 73.2939 44.6435 73.2564 44.006C73.2189 43.3685 73.2002 43.931 73.2002 45.281Z" fill="#6BEC96"/>
<path d="M57.375 74.5687L36.8438 95.1562L57.4313 74.625C68.7375 63.3375 78 54.075 78 54.0562C78 54.0187 77.9813 54 77.9438 54C77.925 54 68.6625 63.2625 57.375 74.5687Z" fill="#6BEC96"/>
<path d="M30.9375 93.975C31.3875 94.4812 31.7813 94.875 31.8188 94.875C31.9688 94.875 31.8188 94.7062 30.9938 93.9375L30.0938 93.0937L30.9375 93.975Z" fill="#6BEC96"/>
<path d="M73.6315 16.8186C73.969 16.8561 74.569 16.8561 74.944 16.8186C75.3377 16.7811 75.0752 16.7436 74.344 16.7436C73.6315 16.7436 73.3127 16.7811 73.6315 16.8186Z" fill="#96EC96"/>
<path d="M43.3126 17.0062C42.5814 17.25 39.8064 19.95 21.8814 37.8562C10.5564 49.1625 1.01263 58.8 0.675131 59.2875C-0.112369 60.4312 -0.224869 62.0062 0.356381 63.1312C0.562631 63.5437 6.93763 70.05 15.4126 78.525L30.0939 93.1875L51.4876 71.775C69.4689 53.775 72.9189 50.25 73.0126 49.7062C73.0689 49.3687 73.1251 41.7937 73.1251 32.8687V16.6687L71.2126 16.725L69.2814 16.7812L69.2251 21.3375L69.1876 25.9125L69.7689 26.5875C72.2251 29.3625 71.7001 33.6188 68.6626 35.625C67.5751 36.3375 66.6376 36.6 65.1001 36.5813C62.9064 36.5625 60.9939 35.3437 60.0189 33.3187C59.2689 31.7812 59.1376 30.7125 59.5126 29.2875C60.2064 26.5687 62.1939 24.8812 65.0064 24.6187L66.1876 24.5062V20.6062V16.6875L55.1814 16.7063C45.7876 16.7063 44.0251 16.7625 43.3126 17.0062ZM37.7251 32.7C38.1939 33.0562 38.3251 33.5062 38.9251 37.0875C39.3939 39.9562 39.5064 40.3312 39.8439 40.4062C40.0501 40.4625 41.7376 40.7625 43.5939 41.0625C47.4939 41.7375 48.1314 41.9062 48.3751 42.375C48.6751 42.9375 48.6001 43.8 48.2064 44.2688C47.7376 44.85 47.1751 44.8312 43.1814 44.1C40.5001 43.6312 40.1251 43.5938 40.1251 43.8562C40.1251 44.025 40.3876 45.5812 40.6876 47.3438C41.0064 49.0875 41.2126 50.7562 41.1376 51.0375C40.9126 52.1063 39.5814 52.4625 38.7376 51.6937C38.3064 51.3187 38.1939 50.8875 37.5564 47.1375L36.8626 42.9937L33.3751 42.3938C31.4626 42.0563 29.7189 41.6625 29.4939 41.5125C28.6689 40.9875 28.7064 39.6187 29.5689 39.0562C30.0376 38.7375 30.1876 38.7562 33.0564 39.2437C34.7064 39.525 36.0939 39.7125 36.1501 39.6562C36.2064 39.6 36.0189 38.2688 35.7564 36.675C35.2126 33.6375 35.2501 33.0563 35.9439 32.6438C36.4126 32.3813 37.3314 32.4 37.7251 32.7ZM59.3064 39.975C59.9064 40.275 60.1689 40.7062 60.1876 41.325C60.1876 41.7562 59.8314 42.225 58.4064 43.6687L56.6439 45.4875L58.0876 46.9313L59.5314 48.375L61.1626 46.7438C62.5314 45.375 62.8876 45.1312 63.3939 45.1312C63.8251 45.1312 64.1251 45.2812 64.4439 45.6375C65.1939 46.5187 65.0439 46.95 63.2439 48.7875L61.6126 50.4562L63.0564 51.9L64.5001 53.3438L66.2251 51.6188C67.1814 50.6813 68.1564 49.8563 68.3814 49.7812C69.3376 49.5 70.3314 50.5688 70.0689 51.6188C69.9939 51.8438 68.8689 53.1188 67.5376 54.4313C65.3814 56.55 65.0626 56.8125 64.4814 56.8125C63.8814 56.8125 63.4126 56.4 58.4439 51.4125C53.7751 46.7437 53.0626 45.9375 53.0626 45.45C53.0626 44.9812 53.4751 44.4937 55.6501 42.3187C57.0751 40.9125 58.3876 39.75 58.5751 39.75C58.7626 39.75 59.0814 39.8437 59.3064 39.975ZM30.2251 50.175C34.0126 51.9 37.2001 53.4 37.3126 53.5312C37.4064 53.6437 37.5564 54.0187 37.6126 54.3375C37.7064 54.825 37.6314 55.0125 37.1626 55.5C36.8439 55.8 36.4126 56.0625 36.2064 56.0625C35.9814 56.0625 35.2126 55.8 34.4814 55.4625L33.1689 54.8812L30.9376 57.0938L28.7251 59.3063L29.2689 60.5062C29.9251 61.9688 29.9626 62.7188 29.4001 63.3187C28.9126 63.8438 27.9564 63.9 27.4126 63.4125C27.2064 63.2437 25.6314 59.9437 23.9064 56.0812C20.5126 48.45 20.4564 48.2625 21.5064 47.4375C22.4251 46.725 22.9126 46.875 30.2251 50.175ZM51.3189 48.6C51.6001 48.8625 51.7501 49.2188 51.7501 49.65C51.7501 50.2125 51.5251 50.5312 50.0251 52.0687L48.3001 53.8312L49.7439 55.2562L51.1689 56.7L52.8376 55.0687C54.6564 53.2875 55.0689 53.1375 55.9501 53.8312C56.3064 54.1125 56.4376 54.3937 56.4376 54.8812C56.4376 55.4625 56.2314 55.7437 54.8439 57.1687L53.2689 58.8L54.6939 60.2438L56.1376 61.6687L57.9564 59.9062C59.4189 58.4625 59.8689 58.125 60.3189 58.125C61.0689 58.125 61.7439 58.8563 61.7251 59.6625C61.7064 60.1875 61.3501 60.6187 59.1939 62.7562C57.1314 64.8 56.5876 65.25 56.1376 65.25C55.6876 65.25 54.7876 64.4437 50.1189 59.7562C45.9751 55.6125 44.6251 54.1687 44.6251 53.8312C44.6251 53.4937 45.3189 52.6688 47.1939 50.775C49.9876 47.9625 50.4001 47.7375 51.3189 48.6ZM16.9501 53.6437C17.3251 53.925 17.4376 54.1875 17.4376 54.7312C17.4376 55.3125 17.2876 55.575 16.4064 56.4375L15.3751 57.45L19.9689 62.0625C23.9814 66.0938 24.5626 66.75 24.5626 67.2562C24.5626 68.1562 24.0001 68.7188 23.0814 68.7188C22.3126 68.7188 22.2189 68.625 17.7564 64.1625L13.2189 59.625L12.2814 60.5625C11.7564 61.0875 11.1564 61.5562 10.9126 61.6312C9.88138 61.875 8.83138 60.825 9.09388 59.775C9.16888 59.5125 10.5564 57.975 12.2626 56.2687C15.5814 52.9875 15.8814 52.8 16.9501 53.6437ZM43.0501 58.7812C45.8064 59.5875 47.2314 62.7563 46.1439 65.625L45.7876 66.5625L46.1814 66.6375C46.4064 66.6937 47.8314 66.7875 49.3501 66.8812C51.8251 67.0312 52.1626 67.0875 52.5376 67.4437C53.1001 68.0062 53.0626 68.9062 52.4439 69.5062L51.9564 69.9937L48.7126 69.7687C46.9314 69.6562 45.0939 69.5625 44.6251 69.5625H43.7814L45.6376 71.4188C47.1939 72.975 47.4939 73.3875 47.4939 73.8563C47.4939 74.6438 46.8001 75.375 46.0501 75.375C45.5626 75.375 44.7751 74.6812 40.0501 69.9562C33.4689 63.3937 33.7689 64.0312 36.3001 61.4812C38.1189 59.6437 38.7939 59.1375 39.9939 58.7625C41.0439 58.4437 41.9251 58.4437 43.0501 58.7812ZM32.8501 67.0687C33.2814 67.4437 33.4314 68.175 33.1689 68.6813C33.0564 68.9062 32.2689 69.7875 31.4439 70.6312L29.9064 72.1875L31.3126 73.5938L32.7001 75L34.3501 73.3875C35.8876 71.8687 36.0376 71.775 36.6001 71.8875C37.3689 72.0375 37.8751 72.6187 37.8751 73.35C37.8751 73.8187 37.5751 74.2312 36.3376 75.4875L34.8001 77.0625L36.9939 79.2938C38.8689 81.1875 39.1876 81.5812 39.1876 82.1062C39.1876 82.8562 38.4751 83.625 37.7439 83.625C37.3314 83.625 36.3001 82.6875 31.8564 78.2437C28.8939 75.3 26.4189 72.675 26.3439 72.4312C26.2876 72.1875 26.3626 71.7562 26.5126 71.475C26.8126 70.9125 30.6189 67.1062 31.2189 66.7687C31.6501 66.525 32.4001 66.6562 32.8501 67.0687Z" fill="#96C1EC"/>
<path d="M26.1937 53.662C26.7562 54.937 27.2812 56.0245 27.3562 56.0995C27.4312 56.1745 28.0874 55.6308 28.8374 54.8808L30.1874 53.512L27.8062 52.4433C26.4749 51.862 25.3499 51.3745 25.2749 51.3745C25.1999 51.3745 25.6124 52.4058 26.1937 53.662Z" fill="#96C1EC"/>
<path d="M40.3875 61.8C40.0687 61.95 39.4125 62.475 38.9437 62.9625L38.0625 63.8625L39.675 65.4375L41.2687 67.0312L42.3562 65.8875C43.6125 64.575 43.875 63.7875 43.425 62.7375C42.9562 61.6125 41.6062 61.2 40.3875 61.8Z" fill="#96C1EC"/>
<path d="M59.3061 30.6556C59.3061 31.0681 59.3436 31.2181 59.3811 30.9744C59.4186 30.7494 59.4186 30.4119 59.3811 30.2244C59.3249 30.0556 59.2874 30.2431 59.3061 30.6556Z" fill="#C1ECC1"/>
<path d="M58.2188 43.725L56.5312 45.4688L58.275 43.7812C59.8688 42.225 60.0938 42 59.9438 42C59.925 42 59.1375 42.7875 58.2188 43.725Z" fill="#C1ECC1"/>
<path d="M56.625 45.6187C56.625 45.6375 57.2812 46.2937 58.0875 47.0625L59.5312 48.4688L58.125 47.0062C56.8313 45.675 56.625 45.4688 56.625 45.6187Z" fill="#C1ECC1"/>
<path d="M63 48.8438L61.4062 50.4375L63 51.9937L64.5938 53.5312L63.0938 51.975L61.5938 50.4375L63.1875 48.8438C64.0688 47.9625 64.725 47.25 64.6875 47.25C64.6313 47.25 63.8625 47.9625 63 48.8438Z" fill="#C1ECC1"/>
<path d="M49.7813 52.125L48.0938 53.8125L49.6875 55.3687L51.2813 56.9062L49.7813 55.35L48.2812 53.8125L49.9688 52.125C50.8875 51.1875 51.6 50.4375 51.5625 50.4375C51.5063 50.4375 50.7 51.2062 49.7813 52.125Z" fill="#C1ECC1"/>
<path d="M54.6562 57.225L53.1562 58.7812L54.7125 57.2812C56.1375 55.8937 56.3438 55.6875 56.1938 55.6875C56.175 55.6875 55.4813 56.3812 54.6562 57.225Z" fill="#C1ECC1"/>
<path d="M41.1187 58.6311C41.4 58.6686 41.8125 58.6686 42.0562 58.6311C42.2812 58.5936 42.0562 58.5561 41.5312 58.5561C41.025 58.5561 40.8187 58.5936 41.1187 58.6311Z" fill="#C1ECC1"/>
<path d="M53.25 58.9312C53.25 58.95 53.9062 59.6062 54.7125 60.375L56.1562 61.7812L54.75 60.3187C53.4563 58.9875 53.25 58.7812 53.25 58.9312Z" fill="#C1ECC1"/>
<path d="M36.375 61.4437L34.5938 63.2812L36.4313 61.5C38.1188 59.85 38.3438 59.625 38.1938 59.625C38.175 59.625 37.35 60.45 36.375 61.4437Z" fill="#C1ECC1"/>
<path d="M48.4313 66.8811C48.6 66.9186 48.9 66.9186 49.0875 66.8811C49.2563 66.8248 49.1063 66.7873 48.75 66.7873C48.3938 66.7873 48.2438 66.8248 48.4313 66.8811Z" fill="#C1ECC1"/>
<path d="M28.6875 69.1312L26.5312 71.3438L28.7438 69.1875C30.7875 67.1812 31.0312 66.9375 30.8813 66.9375C30.8625 66.9375 29.8688 67.9312 28.6875 69.1312Z" fill="#C1ECC1"/>
<path d="M31.3125 70.6312L29.7188 72.2812L31.3688 70.6875C32.2688 69.825 33 69.075 33 69.0562C33 68.9062 32.7938 69.1125 31.3125 70.6312Z" fill="#C1ECC1"/>
<path d="M44.0251 69.5061C44.2501 69.5436 44.5876 69.5436 44.7751 69.5061C44.9439 69.4498 44.7564 69.4123 44.3439 69.4311C43.9314 69.4311 43.7814 69.4686 44.0251 69.5061Z" fill="#C1ECC1"/>
<path d="M47.1188 69.6936C47.2875 69.7311 47.5875 69.7311 47.775 69.6936C47.9438 69.6373 47.7938 69.5998 47.4375 69.5998C47.0813 69.5998 46.9313 69.6373 47.1188 69.6936Z" fill="#C1ECC1"/>
<path d="M50.0251 69.8811C50.2501 69.9186 50.5876 69.9186 50.7751 69.8811C50.9439 69.8248 50.7564 69.7873 50.3439 69.8061C49.9314 69.8061 49.7814 69.8436 50.0251 69.8811Z" fill="#C1ECC1"/>
<path d="M36.0938 75.6L34.5938 77.1562L36.15 75.6562C37.575 74.2687 37.7813 74.0625 37.6313 74.0625C37.6125 74.0625 36.9188 74.7562 36.0938 75.6Z" fill="#C1ECC1"/>
<path d="M79.1807 47.625C79.1807 48.0938 79.2182 48.2813 79.2557 48.0375C79.2932 47.8125 79.2932 47.4375 79.2557 47.1938C79.2182 46.9688 79.1807 47.1563 79.1807 47.625Z" fill="#6BECEC"/>
<path d="M30.8433 94.125C31.3495 94.6312 31.7995 95.0625 31.8558 95.0625C31.912 95.0625 31.537 94.6312 31.0308 94.125C30.5245 93.6 30.0745 93.1875 30.0183 93.1875C29.962 93.1875 30.337 93.6 30.8433 94.125Z" fill="#6BECEC"/>
<path d="M63.0565 25.144C60.994 25.9315 59.5878 27.9565 59.4753 30.319C59.2878 33.6565 61.6503 36.3002 64.969 36.5252C69.994 36.8439 73.0503 31.1815 70.069 27.0565C69.7503 26.6065 69.4315 26.2502 69.3753 26.2502C69.3003 26.2502 69.1878 26.6065 69.1315 27.0377C68.944 28.444 67.594 28.9877 66.6565 28.0315C66.244 27.6377 66.1878 27.4127 66.1878 26.1565V24.7502L65.119 24.769C64.5003 24.769 63.6003 24.9377 63.0565 25.144Z" fill="#ECECEC"/>
<path d="M55.6687 42.3C54.3562 43.6125 53.2312 44.8687 53.1749 45.1125C53.0999 45.3562 53.1749 45.7875 53.3249 46.0875C53.4749 46.3687 55.9124 48.9 58.7249 51.6937C63.3562 56.325 63.9187 56.8125 64.4812 56.8125C65.0062 56.8125 65.3999 56.5125 67.3499 54.6C68.5874 53.4 69.7124 52.1812 69.8624 51.9C70.3687 50.9062 69.7124 49.875 68.5499 49.875C68.1187 49.875 67.6499 50.2312 66.2062 51.6562L64.3874 53.4375L62.9062 51.9375L61.4062 50.4375L63.0562 48.7875C64.4249 47.4 64.6874 47.0625 64.6874 46.5375C64.6874 45.7687 64.1249 45.1875 63.3562 45.1875C62.8687 45.1875 62.4749 45.4688 61.0874 46.8187L59.4374 48.45L58.0312 47.0625C57.2624 46.2937 56.6249 45.5812 56.6249 45.4688C56.6249 45.375 57.3937 44.5125 58.3499 43.5562C59.7562 42.15 60.0562 41.7375 60.0562 41.2687C60.0562 40.4625 59.5312 39.9375 58.7249 39.9375C58.1249 39.9375 57.8249 40.1812 55.6687 42.3Z" fill="#02927F"/>
<path d="M49.7812 48.3753C49.575 48.4503 48.375 49.5753 47.1188 50.8503C45.0938 52.9128 44.8125 53.269 44.8125 53.8128C44.8125 54.394 45.2625 54.919 50.025 59.6815C52.875 62.5503 55.4062 64.9878 55.65 65.0815C56.4 65.3628 57.1875 64.8378 59.4938 62.4753C61.2563 60.6565 61.6875 60.1128 61.6875 59.6815C61.6875 58.594 60.6563 57.8815 59.7563 58.3315C59.5313 58.444 58.6125 59.269 57.7125 60.1503L56.0625 61.7815L54.6562 60.3753C53.8875 59.6065 53.25 58.894 53.25 58.8003C53.25 58.7065 53.9625 57.8815 54.8438 56.9815C56.3813 55.4065 56.6063 55.0128 56.325 54.2815C56.1375 53.794 55.1438 53.4378 54.5625 53.6628C54.3 53.7565 53.4188 54.5065 52.5938 55.3315L51.0938 56.8128L49.5938 55.3128L48.1125 53.8128L49.9313 51.9753C51.9375 49.9315 52.125 49.4815 51.2813 48.6565C50.8125 48.169 50.4188 48.094 49.7812 48.3753Z" fill="#02927F"/>
<path d="M39.375 59.081C38.85 59.306 37.8 60.1873 36.6188 61.3685C34.95 63.0185 34.6875 63.356 34.6875 63.881C34.6875 64.4435 35.1937 65.006 39.9375 69.7498C42.825 72.6185 45.3562 75.0748 45.5625 75.1873C46.4062 75.6373 47.4375 74.8685 47.4375 73.7998C47.4375 73.3685 47.0625 72.881 45.525 71.3248C44.175 69.956 43.725 69.3748 43.9875 69.3748C44.175 69.3935 45.9937 69.506 48 69.6373C52.0125 69.9185 52.4438 69.8623 52.7625 68.981C52.9875 68.3435 52.7812 67.556 52.3125 67.3123C52.1063 67.1998 50.5313 67.0123 48.8063 66.8998C47.0625 66.7873 45.6375 66.6748 45.6187 66.6748C45.6 66.656 45.7688 66.2623 45.9937 65.7935C46.6312 64.4998 46.575 62.4748 45.8625 61.1623C44.925 59.4748 43.5375 58.6873 41.4937 58.6873C40.6312 58.6873 39.9563 58.8185 39.375 59.081ZM43.05 62.1373C44.1562 63.2435 43.9125 64.4248 42.2063 66.0935L41.25 67.0123L39.6562 65.4373L38.0437 63.8435L39.2625 62.6623C40.425 61.5373 40.5 61.4998 41.4375 61.4998C42.3 61.4998 42.4875 61.5748 43.05 62.1373Z" fill="#02927F"/>
<path d="M15.3749 78.6562C23.3624 86.6437 29.9436 93.1875 29.9999 93.1875C30.0561 93.1875 23.5499 86.6437 15.5624 78.6562C7.57487 70.6687 0.993624 64.125 0.937374 64.125C0.881124 64.125 7.38737 70.6687 15.3749 78.6562Z" fill="#ECECEC"/>
<path d="M28.8375 69.15C26.7 71.2875 26.4375 71.625 26.4375 72.1875C26.4375 72.7875 26.85 73.2563 31.7438 78.15C37.0125 83.4188 37.0688 83.4563 37.7812 83.4C38.7 83.325 39.3 82.6125 39.1125 81.825C39.0188 81.5063 38.1188 80.4188 36.825 79.125L34.6875 76.95L36.225 75.4313C37.4625 74.175 37.7438 73.8 37.7438 73.3313C37.7438 72.525 37.2188 72 36.4125 72C35.85 72 35.55 72.2063 34.2375 73.5L32.7 74.9813L31.2563 73.5563L29.8313 72.1125L31.5 70.3875C32.9063 68.9625 33.1875 68.5688 33.1875 68.0813C33.1875 67.3125 32.6063 66.75 31.8375 66.75C31.3125 66.75 30.9188 67.0688 28.8375 69.15Z" fill="#02927F"/>
</g>
<defs>
<clipPath id="clip0_743_1583">
<rect width="96" height="96" fill="white"/>
</clipPath>
</defs>
</svg>
