<svg width="162" height="200" viewBox="0 0 162 200" fill="none" xmlns="http://www.w3.org/2000/svg">
<path d="M73.5179 139.148L77.9703 139.094L77.9728 134.642L78.0422 10.7768H80.663H83.2813V134.639V139.095L87.7364 139.148L123.55 139.578V144.926H37.9568L37.9009 139.577L73.5179 139.148Z" fill="#FFFFFF" stroke="#FFFFFF" stroke-width="9.01851"/>
<path fill-rule="evenodd" clip-rule="evenodd" d="M13.4238 71.55L53.6924 107.553V101.81L19.8457 71.5488L53.6924 41.2876V35.5472L13.4238 71.55Z" fill="#FFFFFF"/>
<path d="M53.6924 107.553L51.1064 110.445L57.5723 116.226V107.553H53.6924ZM13.4238 71.55L10.8378 68.6576L7.60266 71.55L10.8378 74.4424L13.4238 71.55ZM53.6924 101.81H57.5723V100.074L56.2784 98.9175L53.6924 101.81ZM19.8457 71.5488L17.2597 68.6564L14.0245 71.5488L17.2597 74.4412L19.8457 71.5488ZM53.6924 41.2876L56.2784 44.18L57.5723 43.0232V41.2876H53.6924ZM53.6924 35.5472H57.5723L57.5723 26.8739L51.1064 32.6548L53.6924 35.5472ZM56.2784 104.66L16.0098 68.6576L10.8378 74.4424L51.1064 110.445L56.2784 104.66ZM49.8125 101.81V107.553H57.5723V101.81H49.8125ZM56.2784 98.9175L22.4317 68.6564L17.2597 74.4412L51.1064 104.702L56.2784 98.9175ZM22.4317 74.4412L56.2784 44.18L51.1064 38.3952L17.2597 68.6564L22.4317 74.4412ZM49.8125 35.5472V41.2876H57.5723V35.5472H49.8125ZM16.0098 74.4424L56.2784 38.4396L51.1064 32.6548L10.8378 68.6576L16.0098 74.4424Z" fill="#FFFFFF"/>
<path fill-rule="evenodd" clip-rule="evenodd" d="M147.652 71.5506L107.384 35.5479V41.2939L141.227 71.5518L107.384 101.81V107.553L147.652 71.5506Z" fill="#FFFFFF"/>
<path d="M107.384 35.5479L109.97 32.6554L103.504 26.8745V35.5479H107.384ZM147.652 71.5506L150.238 74.443L153.474 71.5506L150.238 68.6582L147.652 71.5506ZM107.384 41.2939H103.504V43.0295L104.798 44.1863L107.384 41.2939ZM141.227 71.5518L143.813 74.4442L147.048 71.5518L143.813 68.6593L141.227 71.5518ZM107.384 101.81L104.798 98.9172L103.504 100.074V101.81H107.384ZM107.384 107.553H103.504V116.227L109.97 110.446L107.384 107.553ZM104.798 38.4403L145.066 74.443L150.238 68.6582L109.97 32.6554L104.798 38.4403ZM111.264 41.2939V35.5479H103.504V41.2939H111.264ZM104.798 44.1863L138.641 74.4442L143.813 68.6593L109.97 38.4015L104.798 44.1863ZM138.641 68.6593L104.798 98.9172L109.97 104.702L143.813 74.4442L138.641 68.6593ZM111.264 107.553V101.81H103.504V107.553H111.264ZM145.066 68.6582L104.798 104.661L109.97 110.446L150.238 74.443L145.066 68.6582Z" fill="#FFFFFF"/>
<path d="M34.5474 197.864V167.204H61.2545V172.335H41.1085V181.167H59.1095V186.046H41.1085V197.864H34.5474ZM65.4554 197.864V167.204H92.1624V172.335H72.0165V181.167H90.0174V186.046H72.0165V197.864H65.4554ZM96.3633 197.864V167.204H102.924V183.775L119.075 167.204H127.318L113.86 180.452L127.865 197.864H119.748L109.359 184.826L102.924 190.883V197.864H96.3633Z" fill="#FFFFFF"/>
</svg>
