<svg width="361" height="360" viewBox="0 0 361 360" fill="none" xmlns="http://www.w3.org/2000/svg">
<path d="M164.814 310.997L174.765 310.877L174.771 300.925L174.926 24.0879H180.783H186.635V300.919V310.877L196.592 310.997L276.635 311.958V323.91H85.3354L85.2102 311.956L164.814 310.997Z" fill="#29333D" stroke="#29333D" stroke-width="20.1563"/>
<path fill-rule="evenodd" clip-rule="evenodd" d="M30.5 159.911L120.5 240.377V227.543L44.8568 159.913L120.5 92.2833L120.5 79.4452L30.5 159.911Z" fill="#29333D"/>
<path d="M120.5 240.377L114.72 246.841L129.172 259.762V240.377H120.5ZM30.5 159.911L24.7203 153.447L17.4898 159.911L24.7203 166.376L30.5 159.911ZM120.5 227.543H129.172V223.664L126.28 221.079L120.5 227.543ZM44.8568 159.913L39.0771 153.449L31.8466 159.913L39.0771 166.378L44.8568 159.913ZM120.5 92.2833L126.28 98.7478L129.172 96.1624V92.2833H120.5ZM120.5 79.4452H129.172V60.0603L114.72 72.9807L120.5 79.4452ZM126.28 233.912L36.2797 153.447L24.7203 166.376L114.72 246.841L126.28 233.912ZM111.828 227.543V240.377H129.172V227.543H111.828ZM126.28 221.079L50.6365 153.449L39.0771 166.378L114.72 234.008L126.28 221.079ZM50.6365 166.378L126.28 98.7478L114.72 85.8188L39.0771 153.449L50.6365 166.378ZM111.828 79.4452V92.2833H129.172V79.4452H111.828ZM36.2797 166.376L126.28 85.9097L114.72 72.9807L24.7203 153.447L36.2797 166.376Z" fill="#29333D"/>
<path fill-rule="evenodd" clip-rule="evenodd" d="M330.5 159.911L240.5 79.4453V92.279L316.143 159.909L240.5 227.539V240.377L330.5 159.911Z" fill="#29333D"/>
<path d="M240.5 79.4453L246.28 72.9808L231.828 60.0605V79.4453H240.5ZM330.5 159.911L336.28 166.376L343.51 159.911L336.28 153.447L330.5 159.911ZM240.5 92.279H231.828V96.158L234.72 98.7435L240.5 92.279ZM316.143 159.909L321.923 166.373L329.153 159.909L321.923 153.444L316.143 159.909ZM240.5 227.539L234.72 221.074L231.828 223.66V227.539H240.5ZM240.5 240.377H231.828V259.762L246.28 246.842L240.5 240.377ZM234.72 85.9098L324.72 166.376L336.28 153.447L246.28 72.9808L234.72 85.9098ZM249.172 92.279V79.4453H231.828V92.279H249.172ZM234.72 98.7435L310.363 166.373L321.923 153.444L246.28 85.8145L234.72 98.7435ZM310.363 153.444L234.72 221.074L246.28 234.003L321.923 166.373L310.363 153.444ZM249.172 240.377V227.539H231.828V240.377H249.172ZM324.72 153.447L234.72 233.913L246.28 246.842L336.28 166.376L324.72 153.447Z" fill="#29333D"/>
</svg>
